# xmcd
#
# Track frame offsets:
#	150
#	15709
#	38226
#	57219
#	80907
#	97370
#	116812
#	130412
#	150858
#	167760
#	197057
#	209040
#	232064
#	248819
#	264706
#	283342
#	302935
#	315843
#	332245
#
# Disc length: 4627 seconds
#
# Revision: 1
# Processed by: cddbd v1.5.2PL0 Copyright (c) Steve Scherf et al.
# Submitted via: audiograbber 1.83.01
#
DISCID=22121113
DTITLE=Various Artist - 2011 - Best Of Lounge Classics [CD2)
DYEAR=2011
DGENRE=Chill
TTITLE0=Eva St. Jones - Space Cowboy
TTITLE1=Smood - Enjoy The Silence (feat. The Voice Of Rita)
TTITLE2=Sarah Menescal - Don't Speak
TTITLE3=Simply Red - Fairground
TTITLE4=Bebo Best and The Super Lounge Orchestra - Come As You Are
TTITLE5=Anakelly - November Rain
TTITLE6=Jamie Lancaster - It Ain't Over Till It's Over
TTITLE7=Christoph Spendel - I Love Your Smile (feat. Lisa Shaw)
TTITLE8=IndigoJazzlounge - Sing It Back
TTITLE9=Snap! - Do You See The Light (Smood's FFM Mix)
TTITLE10=George White Group - Gypsy Dream
TTITLE11=Bossasonic - Carnival
TTITLE12=48th St. Collective - Missing
TTITLE13=Karen Souza - Creep
TTITLE14=The Cooltrane Quartet - Wonderwall
TTITLE15=Ituana - Smells Like Teen Spirit
TTITLE16=Urselle - Suicide Blonde
TTITLE17=Stella Starlight Trio - Black Hole Sun
TTITLE18=Jazzistics ft. Karen Souza - Personal Jesus
EXTD=
EXTT0=
EXTT1=
EXTT2=
EXTT3=
EXTT4=
EXTT5=
EXTT6=
EXTT7=
EXTT8=
EXTT9=
EXTT10=
EXTT11=
EXTT12=
EXTT13=
EXTT14=
EXTT15=
EXTT16=
EXTT17=
EXTT18=
PLAYORDER=
